
<svg width="20" height="18" viewBox="0 0 20 18" fill="none" xmlns="http://www.w3.org/2000/svg">
<path d="M3.76663 3.945L1.1608 1.34L2.33996 0.160832L18.8391 16.6608L17.66 17.8392L14.9016 15.0808C13.436 16.0105 11.7356 16.5028 9.99996 16.5C5.50663 16.5 1.7683 13.2667 0.984131 9C1.34249 7.05893 2.31882 5.28575 3.76746 3.945H3.76663ZM12.2975 12.4767L11.0775 11.2567C10.6108 11.4799 10.0864 11.5529 9.57657 11.4657C9.0667 11.3784 8.59647 11.1351 8.23069 10.7693C7.86491 10.4035 7.62161 9.93326 7.53431 9.42339C7.44702 8.91352 7.52003 8.38913 7.7433 7.9225L6.5233 6.7025C5.99306 7.50374 5.75602 8.46361 5.85232 9.41957C5.94862 10.3755 6.37234 11.2688 7.05173 11.9482C7.73112 12.6276 8.62443 13.0513 9.58039 13.1476C10.5364 13.2439 11.4962 13.0069 12.2975 12.4767ZM6.64496 2.13333C7.68413 1.725 8.81663 1.5 9.99996 1.5C14.4933 1.5 18.2316 4.73333 19.0158 9C18.7605 10.3881 18.1865 11.698 17.3391 12.8267L14.1225 9.61C14.218 8.96634 14.1615 8.30926 13.9574 7.69138C13.7533 7.0735 13.4074 6.51201 12.9472 6.05189C12.4871 5.59177 11.9256 5.24581 11.3078 5.04173C10.6899 4.83765 10.0328 4.78112 9.38913 4.87667L6.64496 2.13417V2.13333Z" fill="#B3B0BC"/>
</svg>
