<svg width="40" height="40" viewBox="0 0 40 40" fill="none" xmlns="http://www.w3.org/2000/svg">
<path d="M35 9.96615C29.45 9.41615 23.8667 9.13281 18.3 9.13281C15 9.13281 11.7 9.29948 8.4 9.63281L5 9.96615" stroke="#E42B2B" stroke-width="1.5" stroke-linecap="round" stroke-linejoin="round"/>
<path d="M14.167 8.28398L14.5337 6.10065C14.8003 4.51732 15.0003 3.33398 17.817 3.33398H22.1837C25.0003 3.33398 25.217 4.58398 25.467 6.11732L25.8337 8.28398" stroke="#E42B2B" stroke-width="1.5" stroke-linecap="round" stroke-linejoin="round"/>
<path d="M31.4163 15.2324L30.333 32.0158C30.1497 34.6324 29.9997 36.6658 25.3497 36.6658H14.6497C9.99967 36.6658 9.84967 34.6324 9.66634 32.0158L8.58301 15.2324" stroke="#E42B2B" stroke-width="1.5" stroke-linecap="round" stroke-linejoin="round"/>
<path d="M17.2168 27.5H22.7668" stroke="#E42B2B" stroke-width="1.5" stroke-linecap="round" stroke-linejoin="round"/>
<path d="M15.833 20.834H24.1663" stroke="#E42B2B" stroke-width="1.5" stroke-linecap="round" stroke-linejoin="round"/>
</svg>
